<svg height="100%" version="1.1" width="100%" xmlns="http://www.w3.org/2000/svg" preserveAspectRatio="xMidYMid meet" viewBox="0 0 600 442" xmlns:xlink="http://www.w3.org/1999/xlink"><desc>Created with Snap</desc><defs/><g id="root" contentwidth="301.4" contentheight="310.8">
          <rect class="background" height="2000%" width="2000%" y="-1000%" x="-1000%" style="" fill="#ffffff"/>
          <rect class="watermarklayer" height="100%" width="100%" y="0" x="0" style="" fill="none"/>
          <g class="content" id="content" transform="matrix(1,0,0,1,0.3,14.6)">
            <g class="icon">
            <svg height="49" version="1.1" width="133" xmlns="http://www.w3.org/2000/svg" x="235" y="136" preserveAspectRatio="none" transform="matrix(1,0,0,1,0,0)"><desc>Created with Snap</desc><defs/><svg xmlns="http://www.w3.org/2000/svg" viewBox="233 134 137 53"><path d="m277.62 164.194-41.35 20.525c-3.396-12.452-1.191-26.135 6.613-41.05 7.804-14.915 19.383-8.074 34.736 20.525Zm47.22 0c15.354-28.599 26.932-35.44 34.737-20.525 7.804 14.915 10.008 28.598 6.613 41.05Z" id="prefix-ZCe-形状结合" stroke="#39363B" stroke-width="4" fill="#EFE7D7"/></svg></svg><svg height="30" version="1.1" width="116" xmlns="http://www.w3.org/2000/svg" x="244" y="149" preserveAspectRatio="none" transform="matrix(1,0,0,1,0,0)"><desc>Created with Snap</desc><defs/><svg xmlns="http://www.w3.org/2000/svg" viewBox="244 149 116 30"><path d="M270.379 166.361 244.917 179c-2.091-7.667-.734-16.093 4.072-25.278 4.806-9.184 11.936-4.971 21.39 12.64Zm63.587 0c9.454-17.61 16.584-21.823 21.39-12.639 4.806 9.185 6.163 17.61 4.072 25.278Z" id="prefix-hsJ-形状结合" fill="#D6C9BC"/></svg></svg><svg height="139" version="1.1" width="181" xmlns="http://www.w3.org/2000/svg" x="211" y="159" preserveAspectRatio="none" transform="matrix(1,0,0,1,0,0)"><desc>Created with Snap</desc><defs/><svg xmlns="http://www.w3.org/2000/svg" viewBox="211 159 181 139"><path d="M302.023 298c21.229 0 48.896-4.066 65.583-16.432 16.686-12.365 23.724-35.214 23.724-56.008 0-40.92-46.112-66.705-89.275-66.705-43.163 0-91.41 25.784-91.41 66.705 0 21.375 11.152 43.022 27.19 56.008C253.108 293.934 281.408 298 302.024 298Z" id="prefix--V1-椭圆形" fill="#EFE7D7" transform="matrix(1 0 0 -1 0 456.855)"/></svg></svg><svg height="226" version="1.1" width="226" xmlns="http://www.w3.org/2000/svg" x="188" y="77" preserveAspectRatio="none" transform="matrix(1,0,0,1,0,0)"><desc>Created with Snap</desc><defs/><svg xmlns="http://www.w3.org/2000/svg" viewBox="191 80 218 218"><path d="M300 80c60.199 0 109 48.801 109 109 0 26.893-9.74 51.511-25.883 70.52-15.159 24.19-48.928 38.48-81.062 38.48-.393 0-.786-.002-1.18-.006L300 298c-60.199 0-109-48.801-109-109S239.801 80 300 80Zm2.023 83.855c-1.771 0-3.54.028-5.304.084l-1.51.054-1.507.068-.752.04-1.5.087c-2.745.174-5.464.415-8.14.723l-1.456.174-1.446.188c-1.682.226-3.344.48-4.982.76l-1.398.245c-.464.084-.926.17-1.386.26l-1.372.271c-12.52 2.551-23.317 6.72-30.288 12.364-15.272 12.365-25.338 32.751-25.338 52.123 0 17.484 9.868 32.997 27.28 44.528 16.125 10.679 37.463 16.945 57.991 17.17L300 293c31.658 0 60.012-14.145 79.087-36.46 4.729-7.685 7.243-16.19 7.243-25.244 0-21.75-7.77-41.669-21.701-51.992-9.987-7.4-25.457-12.215-42.722-14.286l-1.55-.178c-1.037-.113-2.08-.217-3.129-.312l-1.576-.134c-1.316-.105-2.64-.195-3.97-.27l-1.599-.082c-2.669-.124-5.36-.187-8.06-.187ZM300 85c-57.438 0-104 46.562-104 104 0 20.84 6.13 40.248 16.684 56.52a50.114 50.114 0 0 1-2.04-14.224c0-21.376 11.153-43.022 27.192-56.009 9.585-7.761 24.303-12.253 39.032-14.522l1.498-.223c2.745-.395 5.485-.714 8.185-.964l1.47-.13.73-.06 1.456-.109 1.444-.096 1.433-.083 1.42-.07 1.405-.059.697-.025 1.381-.04 1.365-.028c.451-.008.9-.013 1.345-.017l1.326-.006 1.41.006 1.426.018c2.152.037 4.36.114 6.606.238l1.503.089a171.9 171.9 0 0 1 6.104.497l1.544.16c17.009 1.853 34.887 6.456 46.99 15.424 12.848 9.521 19.976 25.258 22.575 41.487l.193 1.265c.645 4.432.956 8.89.956 13.257 0 3.023-.252 5.963-.736 8.817C399.13 225.018 404 207.578 404 189c0-57.438-46.562-104-104-104Z" id="prefix-VhE-形状结合" fill="#39363B" fill-rule="nonzero"/></svg></svg><svg height="51" version="1.1" width="197" xmlns="http://www.w3.org/2000/svg" x="201" y="197" preserveAspectRatio="none" transform="matrix(1,0,0,1,0,0)"><desc>Created with Snap</desc><defs/><svg xmlns="http://www.w3.org/2000/svg" viewBox="201 197 197 51"><path d="M302.001 226.93v5.56c0 5.337 4.327 9.664 9.665 9.664 5.337 0 9.664-4.327 9.664-9.665a1.5 1.5 0 1 1 3 0c0 6.995-5.67 12.665-12.664 12.665a12.658 12.658 0 0 1-10.894-6.2c-2.037 4.267-6.392 7.215-11.436 7.215-6.994 0-12.664-5.67-12.664-12.665a1.5 1.5 0 1 1 3 0 9.665 9.665 0 1 0 19.329 0c0-.087.008-.173.022-.256l-.013-.274h-.009v-6.045h3Zm-15.065-21.667a2 2 0 1 1-3.056 2.58c-8.064-9.55-15.932-9.55-24.825.068a2 2 0 1 1-2.937-2.716c10.497-11.353 21.176-11.353 30.818.068Zm64.958 0a2 2 0 1 1-3.056 2.58c-7.73-9.157-15.283-9.534-23.73-1.073l-.546.558c-.183.19-.366.385-.55.583a2 2 0 0 1-2.936-2.716c10.497-11.353 21.176-11.353 30.818.068Zm-122.397 36.648a1.5 1.5 0 0 1-1.408 1.586l-.575.036-1.124.079-1.093.09c-.358.03-.711.064-1.06.099l-1.026.11c-5.726.648-9.876 1.783-12.42 3.363a1.5 1.5 0 0 1-1.583-2.548c3.044-1.891 7.726-3.158 14.082-3.843l1.106-.112.565-.052 1.156-.095c.195-.015.392-.03.59-.043l1.204-.078a1.5 1.5 0 0 1 1.586 1.408Zm143.447-1.41.145.002 1.204.078.59.043 1.155.095.566.052 1.106.112c6.356.685 11.038 1.952 14.081 3.843a1.5 1.5 0 0 1-1.583 2.548c-2.543-1.58-6.693-2.715-12.42-3.364l-1.026-.11c-.348-.034-.7-.067-1.06-.099l-1.092-.089-1.124-.079-.575-.036a1.5 1.5 0 1 1 .178-2.994Zm-144.36-9.882a1.5 1.5 0 1 1-1.169 2.762c-5.953-2.52-13.965-2.52-24.041.072a1.5 1.5 0 1 1-.748-2.906c10.66-2.741 19.314-2.741 25.959.072Zm142.831 0c6.645-2.813 15.3-2.813 25.959-.072a1.5 1.5 0 1 1-.748 2.906c-10.076-2.592-18.088-2.592-24.041-.072a1.5 1.5 0 1 1-1.17-2.762Zm-140.3-6.623a1.5 1.5 0 0 1-2.23 2.008c-4.006-4.444-12.286-6.67-24.864-6.494a1.5 1.5 0 0 1-.042-3c13.36-.186 22.413 2.248 27.135 7.486Zm138.77 0c4.723-5.238 13.777-7.672 27.136-7.486a1.5 1.5 0 0 1-.042 3c-12.578-.176-20.858 2.05-24.865 6.494a1.5 1.5 0 0 1-2.228-2.008Z" id="prefix-c4S-形状结合" fill="#39363B" fill-rule="nonzero"/></svg></svg><svg height="12" version="1.1" width="12" xmlns="http://www.w3.org/2000/svg" x="295" y="218" preserveAspectRatio="none" transform="matrix(1,0,0,1,0,0)"><desc>Created with Snap</desc><defs/><svg xmlns="http://www.w3.org/2000/svg" viewBox="295 218 12 12"><path d="m303.184 223.139 2.759 5.516a3 3 0 0 1-2.684 4.342h-5.516a3 3 0 0 1-2.683-4.342l2.758-5.516a3 3 0 0 1 5.366 0Z" id="prefix-vDL-三角形" fill="#E4C5DA" transform="matrix(1 0 0 -1 0 450.769)"/></svg></svg><svg height="12" version="1.1" width="12" xmlns="http://www.w3.org/2000/svg" x="295" y="218" preserveAspectRatio="none" transform="matrix(1,0,0,1,0,0)"><desc>Created with Snap</desc><defs/><svg xmlns="http://www.w3.org/2000/svg" viewBox="295 218 12 12"><path d="M301.843 218.087a3 3 0 0 1 1.341 1.342l2.759 5.516a3 3 0 0 1-2.684 4.342h-5.516a3 3 0 0 1-2.683-4.342l2.758-5.516a3 3 0 0 1 4.025-1.342Zm-1.342 2.684-2.758 5.516h5.516l-2.758-5.516Z" id="prefix-AYy-三角形" fill="#39363B" fill-rule="nonzero" transform="matrix(1 0 0 -1 0 447.057)"/></svg></svg><svg height="77" version="1.1" width="78" xmlns="http://www.w3.org/2000/svg" x="352" y="51" preserveAspectRatio="none" transform="matrix(1,0,0,1,0,0)"><desc>Created with Snap</desc><defs/><svg xmlns="http://www.w3.org/2000/svg" viewBox="349 48 83 82"><path d="M391 50.5c10.631 0 20.256 4.31 27.224 11.276C425.19 68.744 429.5 78.37 429.5 89s-4.31 20.256-11.276 27.224C411.256 123.19 401.63 127.5 391 127.5a38.328 38.328 0 0 1-23.406-7.929l-15.882 5.469 5.814-17.006A38.319 38.319 0 0 1 352.5 89c0-10.631 4.31-20.256 11.276-27.224C370.744 54.81 380.37 50.5 391 50.5Z" id="prefix-8G6-形状结合" stroke="#39363B" stroke-width="5" fill="#FED97C"/></svg></svg><path d="M394.2 70.8 L394.4 70.8 Q395.6 70.8 396.3 75.1 Q394.6 82.3 391.5 98.2 Q389.2 105.6 387.1 107.3 L386.9 107.3 Q383.1 106.2 383.1 105.6 Q382.9 105.2 382.9 104.4 Q382.9 103.5 386.5 90 L386.5 88.8 Q386.2 88.8 386.2 88.6 Q383 88.6 374.2 91 Q372.9 91 371.6 99.1 Q371.4 99.1 369.9 101.5 Q369.1 101.5 368.2 100.8 L368 100.8 L367.3 101.3 Q365.6 99.5 365.6 98.2 Q367.8 94.1 367.8 90.3 Q372.3 75.9 374.2 75.9 Q374.4 75.9 375.2 75.7 Q376.4 75.7 376.4 77.8 L376.4 78.7 L374.4 87.6 L375 87.8 Q385.8 84.2 388.4 84.2 Q391.7 70.8 394.2 70.8 Z M408.1 73.3 Q412.3 73.3 415.7 80.1 Q415.7 81 413.8 82 Q411.1 81.8 411.1 81.4 Q409.4 78 405.6 74.9 Q406.3 73.3 408.1 73.3 Z M404.6 84.8 Q413.3 84.8 413.3 88.1 L413.3 88.6 Q410.6 98.9 410.6 101.2 L410.6 101.4 L411.2 101.4 Q415.3 98.9 418.2 96.5 L419 96.5 L419 97.3 Q419 100.5 412.2 105.5 Q409.7 106.6 409 106.6 Q406.3 105.6 406.3 105 L406.3 104.1 Q406.3 102.1 409.5 89.5 L409.5 89.2 Q409.5 88.7 404.9 87.8 Q403 87 403 85.9 Q404.6 85 404.6 84.8 Z" style="" fill="#39363b" transform="matrix(1,0,0,1,0,0)"/></g>
            <g id="icon_name_and_slogan_gap">
            </g>
            <g class="name_and_slogan" id="name_and_slogan_id">
              <g class="name"><path d="M155.6 326.4 L157.8 333.8 Q158.8 334.4 159.6 343.3 L160.5 343.3 Q165.1 331.2 167.8 323.4 Q168.6 322.7 170.8 321.2 L171.6 321.2 L171.6 321.5 Q169.2 333.6 166.5 340 Q165.6 341.4 163.2 348.7 Q162.4 348.7 161 353.3 L160.5 353.3 Q153.9 348.6 153.9 344.6 Q149 326.5 149 319.9 Q150.4 319.3 150.4 319.1 Q155.6 320.9 155.6 326.4 Z M181.5 328.7 Q181.2 331.1 179.8 331.1 Q178.2 331.1 177 328.5 Q177.3 327.6 179.2 326.8 Q180.2 326.8 181.5 328.7 Z M179.4 334.4 L180.7 334.2 Q181.2 334.3 182.2 335.4 L181.9 337.4 L181.9 343.1 Q181.9 344.1 182.4 345.5 Q182.2 347.6 182.2 349.4 L182.2 350 L182.6 350.6 Q182 352.7 181.3 352.9 Q178.6 352.9 178.3 348.6 Q178.3 347.8 178.1 347.4 L178.3 346.7 Q178.1 340.6 178.1 337.8 L177.9 336 Q178.4 334.2 178.7 334.2 Q178.9 334.2 179.4 334.4 Z M188.7 332 Q191.3 332 192.2 336.3 L192.5 336.3 Q196 332.8 198.7 332.8 L200.1 332.8 Q204.5 332.8 205.8 341.5 Q205.8 342 205.5 342 Q205.8 345.7 205.8 347.5 L205.8 349.7 L206.1 351.3 Q205 352.9 205 353.2 L204.5 353.2 Q201.7 350.2 201.7 346.7 L201.7 344.8 Q201.7 343.5 202 342 Q201.3 335.5 199.8 335.5 L198.2 335.5 Q194.7 335.5 192.5 344 Q191.9 352.7 190.3 352.7 Q187.3 348.2 187.3 346.7 Q188.4 345.5 188.9 336.1 L187.6 332 L188.7 332 Z M225.6 335.8 L225.6 336.7 L224.7 336.7 Q223.9 336 223.2 336 L220.5 336 Q213.7 336.8 213.7 341.6 L213.7 343.1 Q213.7 349 219.1 349.9 L220.3 349.9 L224.9 348.5 Q227 349 227 349.5 Q225 353 219.8 353 Q214.4 353 211.5 346.7 L210.8 342.9 Q210.8 335.8 217.7 333.3 L219.8 332.9 Q225.6 334.3 225.6 335.8 Z M247.5 338.2 Q247.5 342.4 241.1 343.6 L235.6 343.6 L235.6 343.8 Q235.6 347.8 242.2 348.7 Q244.2 348.7 248.6 347.4 L250.1 347.6 L250.1 348 Q249.1 350.2 246 351.2 Q245.4 351.9 241.5 352.3 Q236.5 352.3 232.2 344.6 Q231.7 342.7 231.7 342.1 Q231.7 337.5 236 334 Q237.5 333.1 239.4 333.1 Q247.5 334 247.5 338.2 Z M236.4 340.4 Q242.8 340.4 242.8 338.2 Q242.8 337.3 240.7 336.8 L239 336.8 Q237.3 337.7 236.4 339.9 L236.4 340.4 Z M256.1 332 Q258.8 332 259.7 336.3 L260 336.3 Q263.5 332.8 266.2 332.8 L267.6 332.8 Q271.9 332.8 273.3 341.5 Q273.3 342 273 342 Q273.3 345.7 273.3 347.5 L273.3 349.7 L273.5 351.3 Q272.5 352.9 272.5 353.2 L271.9 353.2 Q269.2 350.2 269.2 346.7 L269.2 344.8 Q269.2 343.5 269.5 342 Q268.8 335.5 267.3 335.5 L265.7 335.5 Q262.1 335.5 260 344 Q259.4 352.7 257.8 352.7 Q254.8 348.2 254.8 346.7 Q255.9 345.5 256.4 336.1 L255 332 L256.1 332 Z M284.4 328.6 Q287.5 330.5 287.5 334 L287.9 334.2 Q288.1 334.2 288.6 334 Q294.3 334.6 294.3 335.9 L294.3 336.1 Q293.6 337.2 292.3 337.2 Q289.7 336.8 288.6 336.8 L287.5 337 L287 342.2 Q287.6 349.2 291.2 349.2 L291.9 349.2 Q295.8 347.6 296.6 347.6 L297 348.3 Q296.1 352.2 293.3 352.2 Q283.6 352.2 282.3 344.3 L281.8 341.5 L282.3 336.5 L281.8 336.5 Q281.3 336.5 280.8 336.8 Q278.3 336.3 278.3 335.1 Q278.5 334.6 278.5 334.4 L280.4 334.4 L282.7 334.2 Q283.1 328.6 283.9 328.6 L284.4 328.6 Z M330.1 320 Q338.2 319.8 343.7 319.8 L345.4 319.8 Q350 319.8 350 322.5 L350 323.8 Q347.1 327.4 340.2 339.1 Q335 345.9 335 346.9 L337.2 346.9 Q342.5 346.9 350.8 346.1 Q354.9 346.7 354.9 347.8 L354.9 348.3 L354.6 349.7 L354.1 349.7 Q339.4 350.8 335.9 351.3 Q334.2 351.3 330.4 352.7 Q328.8 352.1 328.8 349.7 L328.8 346.9 Q334 339.8 343.7 323.8 L343.7 323.3 L339.1 323.3 Q338.5 323.3 338 323.5 L337.5 323.3 Q334.5 323.5 332.3 324.4 Q328.2 323.8 328.2 320.3 L328.5 319.8 L330.1 320 Z M362.4 321 Q365.1 323 365.1 326.8 Q364.9 328.2 364.9 329.9 L365.1 329.9 Q365.1 330.1 364.9 330.1 Q365.1 332.2 365.1 333.3 L365.1 335.3 L365.5 335.3 Q367.8 333.3 371.5 333.3 Q374.6 333.3 377.4 337.6 L378.5 343.2 Q377.9 352.7 376.6 352.7 L375.6 352.9 Q373.3 352 373.3 350.4 L373.3 349.2 Q373.3 346.6 373.5 344.4 Q373.5 336.5 370.2 336.5 L368.4 336.5 Q366.1 337.8 366.1 339.9 Q364.9 339.9 364.9 346.5 Q364.5 352.1 362.7 352.1 Q362.4 352.1 362.4 352.2 Q360.3 351.7 360.3 348.6 L360.3 343.8 Q361.1 328.2 361.1 325.6 L361.1 322.9 L360.9 321.4 Q361.6 321 362.1 321 L362.4 321 Z M400.6 336.6 Q401.3 337.2 401.7 342.5 Q400.8 345.8 400.8 349.3 Q400.8 350.2 403.6 351.2 Q403.6 351.6 404.1 352.1 L404.1 352.4 Q404.1 353 401.5 353.5 Q400 353.5 397.7 350 L397.3 350 Q394.7 351.9 391.9 351.9 Q384.6 350.8 384.6 346.9 Q383.2 345.9 383.2 343.2 Q383.2 339.2 387 334.8 Q390.4 332.2 393.5 332.2 Q400.6 333.3 400.6 336.6 Z M387 344.2 Q387 347 392.4 348.4 Q394.7 348.2 395.4 347.4 L396.8 347.4 L396.8 346.3 Q397.5 339.6 397.5 337.6 Q397.5 335.3 394 334.5 L393.5 334.5 Q389.1 334.5 387.4 339 Q387 341.1 387 342 L387 344.2 Z M410.2 332 Q412.9 332 413.7 336.3 L414 336.3 Q417.5 332.8 420.3 332.8 L421.6 332.8 Q426 332.8 427.3 341.5 Q427.3 342 427.1 342 Q427.3 345.7 427.3 347.5 L427.3 349.7 L427.6 351.3 Q426.5 352.9 426.5 353.2 L426 353.2 Q423.3 350.2 423.3 346.7 L423.3 344.8 Q423.3 343.5 423.5 342 Q422.9 335.5 421.4 335.5 L419.7 335.5 Q416.2 335.5 414 344 Q413.5 352.7 411.8 352.7 Q408.8 348.2 408.8 346.7 Q409.9 345.5 410.5 336.1 L409.1 332 L410.2 332 Z M442 333.4 Q442.7 333.4 446.1 334.2 L447.3 334.2 Q449.1 334.2 450 344 Q450.3 347.1 450.4 347.4 Q450.2 347.7 450.2 348.2 Q450.2 348.7 450.4 349.5 Q450.4 359.9 444.3 361.8 L436.6 361.8 Q434.6 361.8 433.1 359.5 Q433.1 358 433.7 357.9 L433.9 357.9 Q435.7 359.7 438.2 359.7 Q444.3 359.7 445.9 351.8 L445.7 351.8 L441 353.3 Q432.9 352.2 432.9 347.4 Q432.3 346.1 432.3 343.5 Q432.3 337.1 437.8 334.6 Q439.9 333.4 441.8 333.4 L442 333.4 Z M440.2 350.5 L441.4 350.5 Q443.5 350.5 446.3 346.9 L446.5 346.5 Q446.5 335.3 445.3 335.3 Q442.4 335 442 335 Q438 335 435.5 340.1 Q434.9 341.3 434.9 343.6 Q434.9 349.5 440.2 350.5 Z" style="" fill="#533e2c" transform="matrix(1,0,0,1,0,0)"/></g>
              <g class="slogan"><path d="M394.2 70.8 L394.4 70.8 Q395.6 70.8 396.3 75.1 Q394.6 82.3 391.5 98.2 Q389.2 105.6 387.1 107.3 L386.9 107.3 Q383.1 106.2 383.1 105.6 Q382.9 105.2 382.9 104.4 Q382.9 103.5 386.5 90 L386.5 88.8 Q386.2 88.8 386.2 88.6 Q383 88.6 374.2 91 Q372.9 91 371.6 99.1 Q371.4 99.1 369.9 101.5 Q369.1 101.5 368.2 100.8 L368 100.8 L367.3 101.3 Q365.6 99.5 365.6 98.2 Q367.8 94.1 367.8 90.3 Q372.3 75.9 374.2 75.9 Q374.4 75.9 375.2 75.7 Q376.4 75.7 376.4 77.8 L376.4 78.7 L374.4 87.6 L375 87.8 Q385.8 84.2 388.4 84.2 Q391.7 70.8 394.2 70.8 Z M408.1 73.3 Q412.3 73.3 415.7 80.1 Q415.7 81 413.8 82 Q411.1 81.8 411.1 81.4 Q409.4 78 405.6 74.9 Q406.3 73.3 408.1 73.3 Z M404.6 84.8 Q413.3 84.8 413.3 88.1 L413.3 88.6 Q410.6 98.9 410.6 101.2 L410.6 101.4 L411.2 101.4 Q415.3 98.9 418.2 96.5 L419 96.5 L419 97.3 Q419 100.5 412.2 105.5 Q409.7 106.6 409 106.6 Q406.3 105.6 406.3 105 L406.3 104.1 Q406.3 102.1 409.5 89.5 L409.5 89.2 Q409.5 88.7 404.9 87.8 Q403 87 403 85.9 Q404.6 85 404.6 84.8 Z" style="" fill="#533e2c" transform="matrix(1,0,0,1,0,0)"/></g>
            </g>
            <g class="border">
            </g>
          </g>
          <defs id="defs">
            <mask xmlns="http://www.w3.org/2000/svg" id="mask">
                <rect id="showAll" fill="white" x="188" y="51" width="242" height="252"/>
                <rect id="hideNameBg" fill="black" x="0" y="0" width="0" height="0" stroke-width="2" stroke="black"/>
                <rect id="hideSloganBg" fill="black" x="0" y="0" width="0" height="0" stroke-width="2" stroke="black"/>
            </mask>
          
          </defs>
        </g>
        </svg>